#N canvas 0 0 1362 686 10;
#X declare -lib mrpeach;
#X obj -122 5 tgl 15 0 empty empty empty 17 7 0 10 -4034 -1 -1 1 1
;
#X msg -122 32 \; pd dsp \$1;
#X text -85 3 DSP ON / OFF;
#X obj 46 3 bng 15 250 50 0 empty empty empty 17 7 0 10 -262144 -1
-1;
#X obj 46 29 openpanel;
#X msg 46 58 read -resize \$1 channelL channelR;
#X obj 46 87 soundfiler;
#X obj -54 169 bng 15 250 50 0 empty empty empty 17 7 0 10 -4160 -1
-1;
#X obj -17 140 bng 15 250 50 0 empty empty empty 17 7 0 10 -260097
-1 -1;
#X obj -54 200 t b b;
#X obj -17 173 t b b b;
#X msg -27 266 0;
#X floatatom 67 129 5 0 0 0 - - -;
#X obj 67 154 s sampleSize;
#X obj 46 195 expr 44100 / $f1;
#X floatatom 115 213 5 0 0 0 - - -;
#X obj 46 283 phasor~;
#X obj 218 170 hsl 200 15 -0.004 0.004 0 0 empty empty empty -2 -8
0 10 -260145 -1 -1 16417 1;
#X text 365 185 Velocity;
#X floatatom 215 184 5 0 0 0 - - -;
#X obj 180 266 r pos;
#X obj 47 344 *~;
#X obj 62 306 r sampleSize;
#X obj 263 245 tgl 15 0 empty empty empty 17 7 0 10 -262144 -1 -1 1
1;
#X obj 263 268 metro 50;
#X obj 263 297 snapshot~;
#X floatatom 263 322 5 0 0 0 - - -;
#X obj 263 349 /;
#X obj 312 332 r sampleSize;
#X floatatom 263 377 5 0 0 0 - - -;
#X obj 263 402 s pos;
#X obj -46 448 vsl 20 50 0 1 0 0 empty empty empty 0 -9 0 10 -159808
-1 -1 500 1;
#X obj 46 387 tabread4~ channelL;
#X obj 92 419 tabread4~ channelR;
#X obj 42 878 dac~ 1 2;
#X obj 45 558 *~;
#X obj 93 558 *~;
#X obj 557 635 hsl 195 15 0 1 0 0 empty empty empty -2 -8 0 10 -7666
-1 -1 0 1;
#X obj 506 617 r pos;
#X obj 557 659 hsl 195 15 0 1 0 0 empty empty empty -2 -8 0 10 -7666
-1 -1 0 1;
#X obj 506 674 s pos;
#N canvas 0 0 450 300 (subpatch) 0;
#X array channelR 1.2225e+007 float 0;
#X coords 0 1 1.2225e+007 -1 200 140 1;
#X restore 553 487 graph;
#N canvas 0 0 450 300 (subpatch) 0;
#X array channelL 1.2225e+007 float 0;
#X coords 0 1 1.2225e+007 -1 200 140 1 0 0;
#X restore 553 324 graph;
#X msg 110 266 0;
#X msg 143 266 0.5;
#X msg 215 130 -0.0035;
#X msg 141 130 0.0035;
#X text -20 113 restart;
#X text -58 143 stop;
#X text -60 230 pause;
#X obj -52 252 bng 15 250 50 0 empty empty empty 17 7 0 10 -4032 -1
-1;
#X obj 140 108 bng 15 250 50 0 empty empty empty 17 7 0 10 -258081
-1 -1;
#X text 166 105 play;
#X obj 329 110 bng 15 250 50 0 empty empty empty 17 7 0 10 -4160 -1
-1;
#X obj 215 109 bng 15 250 50 0 empty empty empty 17 7 0 10 -256962
-1 -1;
#X text 237 107 play backwards;
#X text 83 174 divide sample rate;
#X text 125 530 comment;
#X obj -46 541 line;
#X msg -46 513 \$1 50;
#X obj -50 574 s~ toVU1;
#X obj 254 574 s~ toVU2;
#X obj -116 455 r~ toVU1;
#X obj 313 440 r~ toVU2;
#X obj -115 485 env~;
#X obj 314 470 env~;
#X obj -115 514 - 100;
#X obj -114 546 vu 15 120 empty empty -1 -8 0 10 -66577 -1 1 0;
#X obj 314 500 - 100;
#X obj 315 536 vu 15 120 empty empty -1 -8 0 10 -66577 -1 1 0;
#X obj 267 453 vsl 20 50 0 1 0 0 empty empty empty 0 -9 0 10 -159808
-1 -1 700 1;
#X obj 267 541 line;
#X msg 267 514 \$1 50;
#X text 253 427 R volume;
#X floatatom 161 664 5 0 0 0 - - -;
#X obj 565 794 hip~;
#X obj 7 753 lop~;
#X obj -36 754 lop~;
#X floatatom 195 685 5 0 0 0 - - -;
#X text 207 668 Q;
#X text 536 796 HPF;
#X text 604 796 BPF;
#X obj 633 796 bp~;
#X obj 161 684 sig~;
#X obj 201 614 vsl 24 48 1000 5000 0 0 empty empty empty 0 -9 0 10
-261205 -1 -1 4592 1;
#X obj 43 801 freeverb~;
#X obj 257 752 hsl 36 24 0 1 0 0 empty empty empty -2 -8 0 10 -137983
-1 -1 17 1;
#X msg 254 783 wet \$1;
#X obj 201 752 hsl 36 24 0 1 0 0 empty empty empty -2 -8 0 10 -137983
-1 -1 2007 1;
#X msg 198 783 dry \$1;
#X obj 308 752 hsl 36 24 0 1 0 0 empty empty empty -2 -8 0 10 -137983
-1 -1 0 1;
#X msg 305 783 roomsize \$1;
#X obj -118 819 delwrite~ delayLeft 4000;
#X obj 138 817 delwrite~ delayRight 4000;
#X obj -165 854 vd~ delayLeft;
#X obj 399 838 vd~ delayRight;
#X obj 400 816 sig~;
#X floatatom 400 795 5 0 0 0 - - -;
#X obj -165 819 sig~;
#X floatatom -165 798 5 0 0 0 - - -;
#X obj -165 747 vsl 24 48 0 1000 0 0 empty empty empty 0 -9 0 10 -261205
-1 -1 0 1;
#X obj 400 743 vsl 24 48 0 1000 0 0 empty empty empty 0 -9 0 10 -261205
-1 -1 0 1;
#X text -60 424 L Volume;
#X obj 534 43 import mrpeach;
#X obj 535 105 unpackOSC;
#X obj 535 142 routeOSC /wek/outputs;
#X floatatom 531 209 5 0 0 0 - - -;
#X floatatom 565 210 5 0 0 0 - - -;
#X floatatom 715 229 5 0 0 0 - - -;
#X obj 535 73 udpreceive 12000;
#X obj 373 245 threshold 0.9 1 0.1 1;
#X floatatom -3 711 5 0 0 0 - - -;
#X text 348 108 play new waved;
#X msg 277 130 0.003;
#X msg 391 131 0.004;
#X obj 535 173 unpack f f f f;
#X obj 581 256 * 5000;
#X floatatom 599 211 5 0 0 0 - - -;
#X text -65 755 LFP;
#X text 67 751 VCF;
#X text 221 733 REVERB;
#X text -167 719 L DELAY;
#X text 397 716 R DELAY;
#X text 534 772 More filters that can be used;
#X text 533 226 dry;
#X text 568 227 wet;
#X text 158 211 <-- use this number on the play velocity above;
#X text 509 727 --> Connect vd to dac to use the DELAY;
#X text 508 753 --> Connect LFP or other filters to dac to use them
;
#X obj 110 753 vcf~ 7;
#X obj 156 753 vcf~ 7;
#X text 50 739 comment;
#X text 109 589 central frequency;
#X text 601 227 central frequency;
#X text 712 247 velocity;
#X msg 442 130 0.005;
#X text 80 2 choose a .wav file from disk;
#X text 610 216 comment;
#X msg 329 131 0.0026;
#X connect 0 0 1 0;
#X connect 3 0 4 0;
#X connect 4 0 5 0;
#X connect 5 0 6 0;
#X connect 6 0 12 0;
#X connect 6 0 14 0;
#X connect 7 0 9 0;
#X connect 8 0 10 0;
#X connect 9 0 43 0;
#X connect 9 1 11 0;
#X connect 10 0 46 0;
#X connect 10 1 43 0;
#X connect 10 2 11 0;
#X connect 11 0 16 0;
#X connect 12 0 13 0;
#X connect 14 0 15 0;
#X connect 14 0 16 0;
#X connect 16 0 21 0;
#X connect 17 0 19 0;
#X connect 19 0 16 0;
#X connect 20 0 16 1;
#X connect 21 0 25 0;
#X connect 21 0 32 0;
#X connect 21 0 33 0;
#X connect 22 0 21 1;
#X connect 23 0 24 0;
#X connect 24 0 25 0;
#X connect 25 0 26 0;
#X connect 26 0 27 0;
#X connect 27 0 29 0;
#X connect 28 0 27 1;
#X connect 29 0 30 0;
#X connect 31 0 59 0;
#X connect 32 0 35 0;
#X connect 33 0 36 0;
#X connect 35 0 60 0;
#X connect 35 0 85 0;
#X connect 35 0 77 0;
#X connect 35 0 129 0;
#X connect 36 0 61 0;
#X connect 36 0 85 1;
#X connect 36 0 76 0;
#X connect 36 0 130 0;
#X connect 37 0 39 0;
#X connect 38 0 37 0;
#X connect 39 0 40 0;
#X connect 43 0 16 1;
#X connect 44 0 16 1;
#X connect 45 0 17 0;
#X connect 46 0 17 0;
#X connect 50 0 11 0;
#X connect 51 0 46 0;
#X connect 53 0 138 0;
#X connect 54 0 45 0;
#X connect 58 0 35 1;
#X connect 59 0 58 0;
#X connect 62 0 64 0;
#X connect 63 0 65 0;
#X connect 64 0 66 0;
#X connect 65 0 68 0;
#X connect 66 0 67 0;
#X connect 68 0 69 0;
#X connect 70 0 72 0;
#X connect 71 0 36 1;
#X connect 72 0 71 0;
#X connect 74 0 83 0;
#X connect 78 0 129 2;
#X connect 78 0 130 2;
#X connect 83 0 129 1;
#X connect 83 0 130 1;
#X connect 84 0 74 0;
#X connect 85 0 92 0;
#X connect 85 0 34 0;
#X connect 85 1 93 0;
#X connect 85 1 34 1;
#X connect 86 0 87 0;
#X connect 87 0 85 0;
#X connect 88 0 89 0;
#X connect 89 0 85 0;
#X connect 90 0 91 0;
#X connect 91 0 85 0;
#X connect 96 0 95 0;
#X connect 97 0 96 0;
#X connect 98 0 94 0;
#X connect 99 0 98 0;
#X connect 100 0 99 0;
#X connect 101 0 97 0;
#X connect 104 0 105 0;
#X connect 105 0 115 0;
#X connect 106 0 88 0;
#X connect 107 0 86 0;
#X connect 108 0 110 0;
#X connect 109 0 104 0;
#X connect 110 0 51 0;
#X connect 110 1 53 0;
#X connect 111 0 77 1;
#X connect 111 0 76 1;
#X connect 113 0 17 0;
#X connect 114 0 17 0;
#X connect 115 0 106 0;
#X connect 115 1 107 0;
#X connect 115 2 117 0;
#X connect 115 3 108 0;
#X connect 116 0 84 0;
#X connect 117 0 116 0;
#X connect 129 0 34 0;
#X connect 130 0 34 1;
#X connect 135 0 17 0;
#X connect 138 0 17 0;
